<svg width="48" height="47" viewBox="0 0 48 47" fill="none" xmlns="http://www.w3.org/2000/svg">
<rect x="0.5" width="47" height="47" rx="10" fill="#45C3EB"/>
<path d="M29.1741 23.5C29.1739 24.5005 28.8773 25.4787 28.3215 26.3116C27.7657 27.1446 26.9755 27.7952 26.0501 28.1819C25.1246 28.5685 24.1053 28.6738 23.12 28.4847C22.1347 28.2956 21.2274 27.8204 20.5121 27.1188C19.7968 26.4172 19.3053 25.5205 19.0993 24.5413C18.8934 23.5621 18.9822 22.5441 19.3546 21.6151C19.727 20.686 20.3664 19.8874 21.1924 19.3195C22.0185 18.7516 22.9944 18.4398 23.9977 18.4231C24.6734 18.4119 25.3446 18.5349 25.9722 18.785C26.5997 19.0351 27.1711 19.4073 27.6529 19.8798C28.1347 20.3524 28.5174 20.9159 28.7785 21.5374C29.0397 22.159 29.1742 22.8261 29.1741 23.5ZM29.1741 23.5L29.1741 25.7C29.1741 31.6062 38.4577 26.0385 33.5868 18.0169C32.6059 16.3467 31.2061 14.9598 29.5248 13.9925C27.8435 13.0252 25.9387 12.5108 23.9977 12.5C22.3669 12.505 20.7576 12.8705 19.2855 13.57C17.8134 14.2696 16.5152 15.2859 15.4843 16.5458C14.4533 17.8056 13.7153 19.2777 13.3234 20.8561C12.9314 22.4345 12.8953 24.0799 13.2176 25.6738C13.5398 27.2678 14.2125 28.7707 15.1871 30.0744C16.1618 31.378 17.4141 32.45 18.8541 33.2132C20.2941 33.9764 21.8858 34.4117 23.5147 34.4879C25.1437 34.5641 26.7693 34.2793 28.2746 33.6539" stroke="white" stroke-width="3" stroke-linecap="round" stroke-linejoin="round"/>
</svg>
