<svg width="48" height="46" viewBox="0 0 48 46" fill="none" xmlns="http://www.w3.org/2000/svg">
<rect x="0.5" width="47" height="46" rx="10" fill="#45C3EB"/>
<path d="M24 23.258C24.7563 23.258 25.4039 22.9883 25.9429 22.449C26.4819 21.9097 26.7509 21.2621 26.75 20.5064C26.75 19.7497 26.4805 19.1017 25.9415 18.5624C25.4025 18.0231 24.7553 17.7539 24 17.7548C23.2437 17.7548 22.5961 18.0244 22.0571 18.5637C21.5181 19.1031 21.2491 19.7506 21.25 20.5064C21.25 21.2631 21.5195 21.9111 22.0585 22.4504C22.5975 22.9897 23.2447 23.2589 24 23.258ZM24 33.3701C26.7958 30.8019 28.8698 28.4686 30.2219 26.37C31.574 24.2715 32.25 22.4086 32.25 20.7815C32.25 18.2822 31.4534 16.2359 29.8602 14.6427C28.2671 13.0496 26.3137 12.2525 24 12.2516C21.6854 12.2516 19.7315 13.0486 18.1384 14.6427C16.5452 16.2368 15.7491 18.2831 15.75 20.7815C15.75 22.4096 16.426 24.2728 17.7781 26.3714C19.1302 28.4699 21.2042 30.8028 24 33.3701ZM24 36.5C23.8167 36.5 23.6333 36.4656 23.45 36.3968C23.2667 36.328 23.1062 36.2363 22.9688 36.1217C19.6229 33.1637 17.125 30.4176 15.475 27.8834C13.825 25.3492 13 22.9819 13 20.7815C13 17.342 14.106 14.6019 16.3179 12.5611C18.5298 10.5204 21.0905 9.5 24 9.5C26.9104 9.5 29.4716 10.5204 31.6835 12.5611C33.8954 14.6019 35.0009 17.342 35 20.7815C35 22.9828 34.175 25.3505 32.525 27.8848C30.875 30.419 28.3771 33.1646 25.0312 36.1217C24.8938 36.2363 24.7333 36.328 24.55 36.3968C24.3667 36.4656 24.1833 36.5 24 36.5Z" fill="white"/>
</svg>
