<svg width="51" height="39" viewBox="0 0 51 39" fill="none" xmlns="http://www.w3.org/2000/svg">
<path fill-rule="evenodd" clip-rule="evenodd" d="M14.1363 34.3319V36.3689V38.406H13.2435V37.9114C12.9603 38.2783 12.5307 38.5085 11.9467 38.5085C10.7952 38.5085 9.89261 37.6139 9.89261 36.3689C9.89261 35.125 10.7952 34.2295 11.9467 34.2295C12.5307 34.2295 12.9603 34.4597 13.2435 34.8266V34.3319H14.1363ZM12.0577 35.0646C11.2849 35.0646 10.8119 35.6529 10.8119 36.3689C10.8119 37.085 11.2849 37.6733 12.0577 37.6733C12.7962 37.6733 13.2947 37.1104 13.2947 36.3689C13.2947 35.6275 12.7962 35.0646 12.0577 35.0646ZM44.3072 36.3689C44.3072 35.6529 44.7802 35.0646 45.553 35.0646C46.2925 35.0646 46.79 35.6275 46.79 36.3689C46.79 37.1104 46.2925 37.6733 45.553 37.6733C44.7802 37.6733 44.3072 37.085 44.3072 36.3689ZM47.6327 32.6958V36.3689V38.406H46.739V37.9114C46.4556 38.2783 46.026 38.5085 45.442 38.5085C44.2905 38.5085 43.3879 37.6139 43.3879 36.3689C43.3879 35.125 44.2905 34.2295 45.442 34.2295C46.026 34.2295 46.4556 34.4597 46.739 34.8266V32.6958H47.6327ZM25.219 35.0227C25.7941 35.0227 26.1638 35.3806 26.2583 36.011H24.1275C24.2228 35.4227 24.5827 35.0227 25.219 35.0227ZM23.1914 36.3689C23.1914 35.0987 24.033 34.2295 25.2366 34.2295C26.3871 34.2295 27.1776 35.0987 27.1864 36.3689C27.1864 36.4879 27.1776 36.5993 27.1687 36.7095H24.1196C24.2485 37.4431 24.7725 37.7075 25.3476 37.7075C25.7596 37.7075 26.1983 37.5533 26.5424 37.2812L26.9799 37.9377C26.4814 38.3552 25.9151 38.5085 25.2966 38.5085C24.0675 38.5085 23.1914 37.6646 23.1914 36.3689ZM36.0173 36.3689C36.0173 35.6529 36.4903 35.0646 37.2631 35.0646C38.0014 35.0646 38.5001 35.6275 38.5001 36.3689C38.5001 37.1104 38.0014 37.6733 37.2631 37.6733C36.4903 37.6733 36.0173 37.085 36.0173 36.3689ZM39.3417 34.3319V36.3689V38.406H38.4489V37.9114C38.1648 38.2783 37.7361 38.5085 37.1519 38.5085C36.0005 38.5085 35.0979 37.6139 35.0979 36.3689C35.0979 35.125 36.0005 34.2295 37.1519 34.2295C37.7361 34.2295 38.1648 34.4597 38.4489 34.8266V34.3319H39.3417ZM30.975 36.3689C30.975 37.605 31.8423 38.5085 33.1657 38.5085C33.7842 38.5085 34.1962 38.3719 34.6427 38.0226L34.2139 37.3066C33.8787 37.5456 33.5265 37.6733 33.1392 37.6733C32.4263 37.6646 31.9023 37.1533 31.9023 36.3689C31.9023 35.5846 32.4263 35.0733 33.1392 35.0646C33.5265 35.0646 33.8787 35.1924 34.2139 35.4314L34.6427 34.7153C34.1962 34.366 33.7842 34.2295 33.1657 34.2295C31.8423 34.2295 30.975 35.1329 30.975 36.3689ZM41.4036 34.8266C41.6356 34.4685 41.971 34.2295 42.4863 34.2295C42.6671 34.2295 42.9248 34.2637 43.1224 34.3406L42.8471 35.1758C42.6583 35.0987 42.4694 35.0733 42.2886 35.0733C41.7045 35.0733 41.4125 35.4479 41.4125 36.1221V38.406H40.5187V34.3319H41.4036V34.8266ZM18.5523 34.6558C18.1225 34.3748 17.5307 34.2295 16.8777 34.2295C15.8374 34.2295 15.1678 34.7241 15.1678 35.5339C15.1678 36.1983 15.6664 36.6079 16.5848 36.7358L17.0065 36.7952C17.4962 36.8637 17.7274 36.9914 17.7274 37.2216C17.7274 37.5368 17.4009 37.7162 16.7912 37.7162C16.1728 37.7162 15.7264 37.5202 15.4254 37.2899L15.0046 37.9797C15.4943 38.3377 16.1127 38.5085 16.7824 38.5085C17.9682 38.5085 18.6555 37.9543 18.6555 37.1787C18.6555 36.4626 18.1147 36.0879 17.2209 35.9602L16.8001 35.8997C16.4137 35.8489 16.1039 35.7729 16.1039 35.4997C16.1039 35.2012 16.3959 35.0227 16.8856 35.0227C17.4097 35.0227 17.917 35.2187 18.1659 35.3719L18.5523 34.6558ZM28.9908 34.8266C29.2219 34.4685 29.5572 34.2295 30.0723 34.2295C30.2533 34.2295 30.511 34.2637 30.7085 34.3406L30.4332 35.1758C30.2445 35.0987 30.0556 35.0733 29.8747 35.0733C29.2907 35.0733 28.9987 35.4479 28.9987 36.1221V38.406H28.1059V34.3319H28.9908V34.8266ZM22.4529 34.3319H20.9928V33.0958H20.0901V34.3319H19.2573V35.1416H20.0901V37.0002C20.0901 37.9456 20.4598 38.5085 21.5159 38.5085C21.9032 38.5085 22.3497 38.3895 22.6329 38.1933L22.3752 37.4343C22.1087 37.5875 21.8168 37.6646 21.5848 37.6646C21.1383 37.6646 20.9928 37.3914 20.9928 36.9826V35.1416H22.4529V34.3319ZM9.10296 35.8489V38.406H8.20034V36.1387C8.20034 35.4479 7.90834 35.0646 7.29868 35.0646C6.70572 35.0646 6.29372 35.4402 6.29372 36.1475V38.406H5.3911V36.1387C5.3911 35.4479 5.09123 35.0646 4.49827 35.0646C3.88765 35.0646 3.49248 35.4402 3.49248 36.1475V38.406H2.59082V34.3319H3.48461V34.8343C3.81992 34.3573 4.24861 34.2295 4.6871 34.2295C5.31441 34.2295 5.76089 34.5027 6.04406 34.9543C6.42254 34.3827 6.96337 34.2206 7.48751 34.2295C8.48447 34.2383 9.10296 34.886 9.10296 35.8489Z" fill="#231F20"/>
<path d="M31.7877 27.4093H18.2559V3.28076H31.7877V27.4093Z" fill="#FF5F00"/>
<path d="M19.1149 15.3453C19.1149 10.4506 21.4246 6.09065 25.0214 3.28095C22.3912 1.22633 19.0716 0 15.464 0C6.92331 0 0 6.87023 0 15.3453C0 23.8203 6.92331 30.6905 15.464 30.6905C19.0716 30.6905 22.3912 29.4642 25.0214 27.4095C21.4246 24.5999 19.1149 20.2399 19.1149 15.3453Z" fill="#EB001B"/>
<path d="M50.043 15.3453C50.043 23.8203 43.1197 30.6905 34.579 30.6905C30.9713 30.6905 27.6518 29.4642 25.0205 27.4095C28.6183 24.5999 30.9281 20.2399 30.9281 15.3453C30.9281 10.4506 28.6183 6.09065 25.0205 3.28095C27.6518 1.22633 30.9713 0 34.579 0C43.1197 0 50.043 6.87023 50.043 15.3453Z" fill="#F79E1B"/>
</svg>
