<svg width="47" height="47" viewBox="0 0 47 47" fill="none" xmlns="http://www.w3.org/2000/svg">
<rect width="47" height="47" rx="10" fill="#45C3EB"/>
<path d="M13.7833 34.5C13.5796 34.5 13.3657 34.4947 13.1417 34.4841C12.9176 34.4735 12.7037 34.4584 12.5 34.4389V27.2889L18.6111 26.0667L22.1556 29.6111C23.7037 28.6741 25.1247 27.5639 26.4187 26.2806C27.7126 24.9972 28.7869 23.6222 29.6417 22.1556L26.1583 18.6417L27.2889 12.5H34.4389C34.4796 12.7037 34.5 12.9176 34.5 13.1417V13.7833C34.5 16.4111 33.9146 18.9729 32.7437 21.4687C31.5728 23.9644 30.0246 26.1795 28.0992 28.1139C26.1738 30.0491 23.9636 31.5972 21.4687 32.7583C18.9737 33.9194 16.4119 34.5 13.7833 34.5ZM30.8028 19.8333C31.1491 19.0389 31.4139 18.2343 31.5972 17.4194C31.7806 16.6046 31.9231 15.7796 32.025 14.9444H29.3056L28.7861 17.8167L30.8028 19.8333ZM19.8639 30.7722L17.8167 28.725L14.9444 29.3056V31.9944C15.7796 31.9333 16.6099 31.8009 17.4353 31.5972C18.2607 31.3935 19.0703 31.1185 19.8639 30.7722Z" fill="white"/>
</svg>
