<svg width="80" height="28" viewBox="0 0 80 28" fill="none" xmlns="http://www.w3.org/2000/svg">
<path fill-rule="evenodd" clip-rule="evenodd" d="M27.5548 13.777C27.5548 21.386 21.3866 27.5542 13.7777 27.5542C6.1684 27.5542 0 21.386 0 13.777C0 6.1681 6.1684 -0.00012323 13.7777 -0.00012323C21.3866 -0.00012323 27.5548 6.1681 27.5548 13.777Z" fill="#ED342B"/>
<path fill-rule="evenodd" clip-rule="evenodd" d="M13.7774 19.6786C10.6957 12.6932 8.43612 6.16762 8.43612 6.16762H3.71191C3.71191 6.16762 6.58729 14.5433 11.9284 25.0176H15.6264C20.9675 14.5433 23.8426 6.16762 23.8426 6.16762H19.1184C19.1184 6.16762 16.8591 12.6932 13.7774 19.6786Z" fill="#FEFEFE"/>
<path fill-rule="evenodd" clip-rule="evenodd" d="M73.1105 13.0585C70.4398 13.0585 70.2347 15.9344 70.2347 15.9344H75.9857C75.9857 15.9344 75.7806 13.0585 73.1105 13.0585ZM79.4779 18.8098H70.2347C70.2347 18.8098 70.4398 21.8913 74.5484 21.8913C76.6022 21.8913 78.6563 21.2745 78.6563 21.2745L79.0673 24.5609C79.0673 24.5609 77.0132 25.383 74.1373 25.383C70.0293 25.383 66.332 23.3288 66.332 17.5775C66.332 13.0585 69.2078 10.1828 73.3159 10.1828C79.4779 10.1828 79.8884 16.345 79.4779 18.8098ZM48.0477 13.9564L48.6838 10.5649C48.6838 10.5649 43.7726 9.07467 39.7809 11.8363V25.4023H44.0201V14.3799C45.7158 13.1086 48.0477 13.9564 48.0477 13.9564ZM30.3773 13.0585C27.7072 13.0585 27.5019 15.9344 27.5019 15.9344H33.253C33.253 15.9344 33.0479 13.0585 30.3773 13.0585ZM36.7447 18.8098H27.5019C27.5019 18.8098 27.7072 21.8913 31.8153 21.8913C33.8689 21.8913 35.9231 21.2745 35.9231 21.2745L36.3342 24.5609C36.3342 24.5609 34.2799 25.383 31.4042 25.383C27.2961 25.383 23.5986 23.3288 23.5986 17.5775C23.5986 13.0585 26.4745 10.1828 30.5826 10.1828C36.7447 10.1828 37.1553 16.345 36.7447 18.8098ZM58.3933 20.2175C56.2407 15.0509 55.1648 10.1853 55.1648 10.1853L50.8605 10.1858C50.8605 10.1858 53.0129 18.4952 56.6722 25.3805H60.1144C63.7738 18.4952 65.9262 10.187 65.9262 10.187H61.6217C61.6217 10.187 60.5459 15.0509 58.3933 20.2175Z" fill="#03435F"/>
</svg>
