<svg width="68" height="22" viewBox="0 0 68 22" fill="none" xmlns="http://www.w3.org/2000/svg">
<path d="M29.1869 21.4783H23.6932L27.1267 0.377049H32.621L29.1869 21.4783ZM19.0715 0.377049L13.834 14.8906L13.2142 11.7653L13.2148 11.7664L11.3662 2.27697C11.3662 2.27697 11.1427 0.377049 8.7602 0.377049H0.1016L0 0.734343C0 0.734343 2.64781 1.28524 5.74662 3.14622L10.5196 21.4788H16.2436L24.9841 0.377049H19.0715ZM62.2826 21.4783H67.3271L62.9289 0.376485H58.5127C56.4733 0.376485 55.9766 1.94903 55.9766 1.94903L47.7831 21.4783H53.51L54.6553 18.3439H61.6391L62.2826 21.4783ZM56.2374 14.0141L59.124 6.11746L60.7479 14.0141H56.2374ZM48.2127 5.45141L48.9967 0.920045C48.9967 0.920045 46.5775 0 44.0555 0C41.3293 0 34.8551 1.19154 34.8551 6.98558C34.8551 12.437 42.4536 12.5047 42.4536 15.3682C42.4536 18.2316 35.638 17.7185 33.3886 15.9128L32.5719 20.6508C32.5719 20.6508 35.025 21.8424 38.7729 21.8424C42.5219 21.8424 48.1777 19.9012 48.1777 14.618C48.1777 9.1316 40.5108 8.62078 40.5108 6.23543C40.5114 3.84952 45.8618 4.15601 48.2127 5.45141Z" fill="#2566AF"/>
<path d="M13.5517 11.8454L11.7032 2.35598C11.7032 2.35598 11.4796 0.456055 9.09711 0.456055H0.438514L0.336914 0.813348C0.336914 0.813348 4.49857 1.67582 8.49033 4.90727C12.3071 7.99592 13.5517 11.8454 13.5517 11.8454Z" fill="#E6A540"/>
</svg>
